<svg width="28" height="28" viewBox="0 0 28 28" fill="none" xmlns="http://www.w3.org/2000/svg">
<path d="M8.16668 2.33325H7.00001C3.50001 2.33325 2.33334 4.42159 2.33334 6.99992V8.16658V24.4999C2.33334 25.4683 3.43001 26.0166 4.20001 25.4333L6.19501 23.9399C6.66168 23.5899 7.31501 23.6366 7.73501 24.0566L9.67168 26.0049C10.1267 26.4599 10.8733 26.4599 11.3283 26.0049L13.2883 24.0449C13.6967 23.6366 14.35 23.5899 14.805 23.9399L16.8 25.4333C17.57 26.0049 18.6667 25.4566 18.6667 24.4999V4.66659C18.6667 3.38325 19.7167 2.33325 21 2.33325H8.16668ZM6.96501 16.3449C6.32334 16.3449 5.79834 15.8199 5.79834 15.1783C5.79834 14.5366 6.32334 14.0116 6.96501 14.0116C7.60668 14.0116 8.13168 14.5366 8.13168 15.1783C8.13168 15.8199 7.60668 16.3449 6.96501 16.3449ZM6.96501 11.6783C6.32334 11.6783 5.79834 11.1533 5.79834 10.5116C5.79834 9.86992 6.32334 9.34492 6.96501 9.34492C7.60668 9.34492 8.13168 9.86992 8.13168 10.5116C8.13168 11.1533 7.60668 11.6783 6.96501 11.6783ZM14 16.0533H10.5C10.0217 16.0533 9.62501 15.6566 9.62501 15.1783C9.62501 14.6999 10.0217 14.3033 10.5 14.3033H14C14.4783 14.3033 14.875 14.6999 14.875 15.1783C14.875 15.6566 14.4783 16.0533 14 16.0533ZM14 11.3866H10.5C10.0217 11.3866 9.62501 10.9899 9.62501 10.5116C9.62501 10.0333 10.0217 9.63659 10.5 9.63659H14C14.4783 9.63659 14.875 10.0333 14.875 10.5116C14.875 10.9899 14.4783 11.3866 14 11.3866Z" fill="#B9BABC"/>
<path d="M21.0117 2.33325V4.08325C21.7817 4.08325 22.5167 4.39825 23.0533 4.92325C23.6133 5.49492 23.9167 6.22992 23.9167 6.99992V9.82325C23.9167 10.6866 23.5317 11.0833 22.6567 11.0833H20.4167V4.67825C20.4167 4.35159 20.685 4.08325 21.0117 4.08325V2.33325ZM21.0117 2.33325C19.7167 2.33325 18.6667 3.38325 18.6667 4.67825V12.8333H22.6567C24.5 12.8333 25.6667 11.6666 25.6667 9.82325V6.99992C25.6667 5.71659 25.1417 4.54992 24.3017 3.69825C23.45 2.85825 22.295 2.34492 21.0117 2.33325C21.0233 2.33325 21.0117 2.33325 21.0117 2.33325Z" fill="#B9BABC"/>
</svg>
