<svg width="28" height="28" viewBox="0 0 28 28" fill="none" xmlns="http://www.w3.org/2000/svg">
<path d="M8.44665 2.33325H6.22998C3.67498 2.33325 2.33331 3.67492 2.33331 6.21825V8.43492C2.33331 10.9783 3.67498 12.3199 6.21831 12.3199H8.43498C10.9783 12.3199 12.32 10.9783 12.32 8.43492V6.21825C12.3316 3.67492 10.99 2.33325 8.44665 2.33325Z" fill="#B9BABC"/>
<path d="M21.7817 2.33325H19.565C17.0217 2.33325 15.68 3.67492 15.68 6.21825V8.43492C15.68 10.9783 17.0217 12.3199 19.565 12.3199H21.7817C24.325 12.3199 25.6667 10.9783 25.6667 8.43492V6.21825C25.6667 3.67492 24.325 2.33325 21.7817 2.33325Z" fill="#B9BABC"/>
<path d="M21.7817 15.6682H19.565C17.0217 15.6682 15.68 17.0099 15.68 19.5532V21.7699C15.68 24.3132 17.0217 25.6549 19.565 25.6549H21.7817C24.325 25.6549 25.6667 24.3132 25.6667 21.7699V19.5532C25.6667 17.0099 24.325 15.6682 21.7817 15.6682Z" fill="#B9BABC"/>
<path d="M8.44665 15.6682H6.22998C3.67498 15.6682 2.33331 17.0099 2.33331 19.5532V21.7699C2.33331 24.3249 3.67498 25.6665 6.21831 25.6665H8.43498C10.9783 25.6665 12.32 24.3249 12.32 21.7815V19.5649C12.3316 17.0099 10.99 15.6682 8.44665 15.6682Z" fill="#B9BABC"/>
</svg>
