<svg width="28" height="28" viewBox="0 0 28 28" fill="none" xmlns="http://www.w3.org/2000/svg">
<path d="M18.8883 2.33325H9.11168C4.86501 2.33325 2.33334 4.86492 2.33334 9.11159V18.8766C2.33334 23.1349 4.86501 25.6666 9.11168 25.6666H18.8767C23.1233 25.6666 25.655 23.1349 25.655 18.8883V9.11159C25.6667 4.86492 23.135 2.33325 18.8883 2.33325ZM18.375 18.3749H9.62501C9.14668 18.3749 8.75001 17.9783 8.75001 17.4999C8.75001 17.0216 9.14668 16.6249 9.62501 16.6249H18.375C18.8533 16.6249 19.25 17.0216 19.25 17.4999C19.25 17.9783 18.8533 18.3749 18.375 18.3749ZM18.375 11.3749H9.62501C9.14668 11.3749 8.75001 10.9783 8.75001 10.4999C8.75001 10.0216 9.14668 9.62492 9.62501 9.62492H18.375C18.8533 9.62492 19.25 10.0216 19.25 10.4999C19.25 10.9783 18.8533 11.3749 18.375 11.3749Z" fill="#B9BABC"/>
</svg>
