<svg width="20" height="20" viewBox="0 0 20 20" fill="none" xmlns="http://www.w3.org/2000/svg">
<path d="M10 1.66675C5.40835 1.66675 1.66669 5.40841 1.66669 10.0001C1.66669 14.5917 5.40835 18.3334 10 18.3334C14.5917 18.3334 18.3334 14.5917 18.3334 10.0001C18.3334 5.40841 14.5917 1.66675 10 1.66675ZM12.325 10.4417L9.38335 13.3834C9.25835 13.5084 9.10002 13.5667 8.94169 13.5667C8.78335 13.5667 8.62502 13.5084 8.50002 13.3834C8.25835 13.1417 8.25835 12.7417 8.50002 12.5001L11 10.0001L8.50002 7.50008C8.25835 7.25842 8.25835 6.85842 8.50002 6.61675C8.74169 6.37508 9.14169 6.37508 9.38335 6.61675L12.325 9.55842C12.575 9.80008 12.575 10.2001 12.325 10.4417Z" fill="#B9BABC"/>
</svg>
