<svg width="428" height="199" viewBox="0 0 428 199" fill="none" xmlns="http://www.w3.org/2000/svg">
<g opacity="0.35">
<path d="M-903.19 43.6443C-855.671 9.24429 -804.859 -21.8557 -749.219 -35.5557C-693.689 -49.1557 -632.452 -43.3557 -587.787 -8.95572C-534.451 32.1443 -509.43 108.744 -448.741 137.044C-409.453 155.344 -363.58 149.344 -320.012 146.244C-276.334 143.144 -228.706 144.744 -196.441 174.244C-138.606 227.144 -159.238 341.744 -96.5743 388.344C-55.2009 419.044 2.30473 405.044 53.6647 408.644C118.633 413.244 179.65 449.944 215.317 505.944C250.984 561.944 260.531 636.144 240.777 702.544" stroke="#1C2226" stroke-miterlimit="10"/>
<path d="M-897.264 35.1442C-849.964 1.2442 -799.153 -29.0558 -743.842 -42.0558C-710.48 -49.9558 -675.033 -50.8558 -642.439 -42.8558C-621.149 -37.6558 -601.066 -28.5558 -583.507 -15.2558C-530.281 25.2442 -504.272 100.144 -445.01 129.444C-423.939 139.844 -401.222 143.544 -377.628 144.244C-357.654 144.844 -337.132 143.344 -316.939 142.244C-288.626 140.644 -258.446 140.544 -231.888 148.144C-217.183 152.344 -203.574 158.844 -191.941 168.644C-169.005 187.844 -157.263 215.744 -147.825 245.544C-134.107 288.444 -124.888 335.444 -94.8184 365.944C-91.6358 369.244 -88.124 372.244 -84.3927 375.144C-43.3486 406.544 11.7426 395.544 60.1395 401.144C107.549 406.744 152.105 430.944 185.906 468.244C195.673 479.044 204.452 490.944 212.244 503.744C226.182 526.844 236.388 552.744 242.643 579.644C252.081 619.644 252.849 661.744 243.741 700.444" stroke="#23292E" stroke-miterlimit="10"/>
<path d="M-891.447 26.5443C-844.257 -6.75572 -793.556 -36.2557 -738.465 -48.7557C-705.212 -56.3557 -670.094 -57.0557 -637.72 -49.0557C-616.539 -43.8557 -596.566 -34.9557 -579.007 -21.7557C-525.891 18.0443 -499.114 91.3443 -441.169 121.544C-420.318 132.344 -398.15 137.044 -374.774 138.544C-354.911 139.844 -334.279 138.844 -313.976 137.944C-285.443 136.744 -255.044 136.644 -228.157 143.644C-213.342 147.544 -199.624 153.544 -187.552 162.844C-164.067 180.844 -151.117 207.044 -140.472 235.344C-124.998 276.044 -113.365 321.444 -82.8564 352.344C-79.5641 355.644 -76.1621 358.744 -72.4308 361.644C-31.6062 393.644 20.8513 385.644 66.2851 393.444C110.731 401.044 151.885 426.544 183.601 464.844C192.819 475.944 201.27 488.144 208.732 501.244C222.231 524.844 232.547 551.144 239.46 578.244C249.776 618.544 252.74 660.344 246.374 698.044" stroke="#2A2F37" stroke-miterlimit="10"/>
<path d="M-885.631 18.0442C-838.66 -14.7558 -787.959 -43.4558 -733.087 -55.3558C-700.054 -62.5558 -665.266 -63.1558 -633.111 -55.1558C-612.15 -49.9558 -592.286 -41.1558 -574.727 -28.1558C-521.611 11.0442 -493.956 82.7442 -437.328 113.744C-416.806 125.044 -395.077 130.644 -371.811 132.844C-352.057 134.844 -331.426 134.244 -310.904 133.744C-282.151 132.944 -251.422 132.844 -224.316 139.244C-209.281 142.844 -195.344 148.444 -183.052 157.044C-158.909 173.844 -144.971 198.244 -133.009 225.144C-115.67 263.744 -101.622 307.344 -70.7845 338.744C-67.4922 342.044 -64.0902 345.244 -60.3589 348.244C-19.7538 380.944 30.1796 375.944 72.5406 385.744C114.133 395.344 151.666 422.144 181.516 461.544C190.186 472.944 198.197 485.544 205.44 498.844C218.5 523.044 228.925 549.644 236.388 576.944C247.691 617.544 252.74 659.044 249.118 695.644" stroke="#31363F" stroke-miterlimit="10"/>
<path d="M-879.814 9.54421C-832.954 -22.6558 -782.362 -50.5558 -727.819 -61.9558C-695.006 -68.8558 -660.437 -69.2558 -628.501 -61.2558C-607.65 -56.0558 -587.896 -47.3558 -570.447 -34.6558C-517.331 3.9442 -488.908 74.0442 -433.597 105.944C-413.294 117.644 -392.114 124.144 -369.068 127.244C-349.424 129.844 -328.682 129.844 -307.94 129.644C-278.968 129.244 -248.02 129.044 -220.475 134.944C-205.33 138.144 -191.173 143.444 -178.553 151.344C-153.751 166.944 -138.826 189.744 -125.547 214.944C-106.451 251.344 -89.9896 293.344 -58.603 325.144C-55.3106 328.544 -51.7989 331.744 -48.1773 334.744C-7.90141 368.044 39.6175 366.044 79.0155 377.944C117.645 389.544 151.666 417.644 179.541 458.144C187.662 469.944 195.234 482.744 202.258 496.344C214.878 521.044 225.413 548.144 233.534 575.544C245.826 616.444 252.849 657.644 252.081 693.244" stroke="#383C47" stroke-miterlimit="10"/>
<path d="M-873.998 0.944115C-827.247 -30.7559 -776.765 -57.8559 -722.442 -68.6559C-689.848 -75.2559 -655.608 -75.3559 -623.783 -67.4559C-603.041 -62.2559 -583.397 -53.6559 -566.057 -41.1559C-513.051 -3.15589 -483.64 65.3441 -429.756 98.0441C-409.673 110.244 -389.041 117.644 -366.105 121.444C-346.57 124.744 -325.719 125.244 -304.868 125.244C-275.786 125.244 -244.399 125.044 -216.634 130.344C-201.27 133.244 -187.003 138.044 -174.163 145.344C-148.703 159.744 -132.68 180.844 -118.194 204.544C-97.3426 238.844 -78.357 279.144 -46.6411 311.344C-43.239 314.744 -39.837 318.044 -36.2155 321.144C3.84096 355.044 48.8359 356.144 85.161 370.044C120.937 383.744 151.336 413.044 177.346 454.544C184.918 466.644 192.051 479.844 198.855 493.644C211.037 518.844 221.682 546.344 230.352 573.844C243.521 614.944 252.739 655.944 254.715 690.544" stroke="#3F4350" stroke-miterlimit="10"/>
<path d="M-868.182 -7.55577C-821.65 -38.7558 -771.168 -64.9558 -717.065 -75.2558C-684.69 -81.5558 -650.67 -81.4558 -619.173 -73.5558C-598.651 -68.3558 -579.117 -59.8558 -561.777 -47.5558C-508.771 -10.1558 -478.592 56.7442 -426.025 90.2442C-406.161 102.944 -386.078 111.244 -363.251 115.744C-343.827 119.644 -322.975 120.744 -301.905 121.044C-272.603 121.444 -240.997 121.244 -212.903 126.044C-197.429 128.644 -182.943 133.044 -169.773 139.644C-143.764 152.844 -126.534 172.244 -110.841 194.444C-88.1242 226.544 -66.8339 265.244 -34.679 297.844C-31.277 301.244 -27.7652 304.544 -24.1436 307.744C15.6933 342.344 58.1641 346.444 91.5261 362.444C124.339 378.144 151.336 408.844 175.26 451.344C182.284 463.744 189.088 477.244 195.563 491.344C207.306 517.144 218.06 544.944 227.389 572.644C241.546 614.044 252.849 654.744 257.568 688.344" stroke="#464958" stroke-miterlimit="10"/>
<path d="M-862.255 -16.1558C-815.834 -46.7558 -765.462 -72.1558 -711.687 -81.9558C-679.532 -87.8558 -645.841 -87.6558 -614.454 -79.7558C-594.042 -74.5558 -574.617 -66.1558 -557.388 -54.1558C-504.491 -17.4558 -473.434 48.0442 -422.293 82.3442C-402.649 95.5442 -383.115 104.644 -360.508 110.044C-341.193 114.644 -320.232 116.144 -299.051 116.744C-269.53 117.544 -237.595 117.244 -209.281 121.544C-193.588 123.844 -178.882 127.744 -165.493 133.844C-138.826 145.844 -120.608 163.444 -103.598 184.244C-79.125 214.244 -55.4205 251.244 -22.7169 284.244C-19.3148 287.744 -15.803 291.044 -12.1814 294.244C27.436 329.444 67.3826 336.644 97.6719 354.644C127.632 372.444 151.007 404.344 173.066 447.944C179.541 460.744 185.906 474.444 192.161 488.944C203.465 515.244 214.22 543.544 224.206 571.344C239.241 613.044 252.74 653.544 260.202 686.044" stroke="#4D5060" stroke-miterlimit="10"/>
<path d="M-856.439 -24.6559C-810.127 -54.7559 -759.865 -79.3559 -706.31 -88.5559C-674.265 -94.1559 -640.903 -93.7559 -609.845 -85.8559C-589.543 -80.7559 -570.337 -72.3559 -552.998 -60.5559C-500.102 -24.4559 -468.276 39.5441 -418.452 74.5441C-399.028 88.1441 -379.932 98.2441 -357.545 104.344C-338.34 109.544 -317.269 111.644 -295.869 112.544C-266.128 113.744 -233.973 113.444 -205.221 117.144C-189.418 119.144 -174.492 122.644 -160.774 128.044C-133.448 138.844 -114.133 154.744 -95.9159 174.044C-69.5775 201.844 -43.4585 237.244 -10.4257 270.644C-7.02367 274.144 -3.51184 277.544 0.109702 280.844C39.3979 316.744 77.0399 327.044 104.147 346.944C131.363 366.844 151.007 399.944 171.2 444.544C177.126 457.644 183.052 471.744 189.088 486.444C199.953 513.244 210.817 541.944 221.462 569.944C237.485 611.944 253.069 652.144 263.275 683.644" stroke="#545669" stroke-miterlimit="10"/>
<path d="M-850.623 -33.1558C-804.53 -62.6558 -754.158 -86.4558 -700.932 -95.1558C-669.107 -100.456 -635.964 -99.8558 -605.126 -91.9558C-585.043 -86.8558 -565.838 -78.6558 -548.608 -66.9558C-495.712 -31.4558 -463.118 30.9442 -414.611 66.8442C-395.406 80.9442 -376.859 91.9442 -354.582 98.8442C-335.486 104.744 -314.415 107.344 -292.796 108.544C-262.836 110.144 -230.462 109.844 -201.379 112.944C-185.357 114.644 -170.212 117.644 -156.385 122.444C-128.4 132.044 -107.988 146.244 -88.5631 164.044C-60.4687 189.744 -31.9353 223.444 1.53646 257.244C5.04825 260.744 8.56002 264.244 12.0718 267.544C51.1405 304.044 86.2585 317.544 110.402 339.344C134.765 361.444 150.788 395.744 169.005 441.344C174.383 454.744 179.98 469.144 185.686 484.144C196.112 511.444 207.086 540.544 218.28 568.744C235.29 611.044 252.959 650.944 265.909 681.444" stroke="#5B5D71" stroke-miterlimit="10"/>
<path d="M-844.806 -41.7558C-798.824 -70.7558 -748.561 -93.7558 -695.665 -101.856C-664.058 -106.756 -631.245 -105.956 -600.517 -98.1558C-580.544 -93.0558 -561.448 -84.9558 -544.328 -73.5558C-491.542 -38.6558 -458.18 22.2442 -410.88 58.8442C-392.004 73.4442 -373.896 85.3442 -351.838 92.9442C-332.852 99.5442 -311.672 102.544 -289.943 104.044C-259.763 106.044 -227.06 105.744 -197.758 108.244C-181.626 109.644 -166.262 112.144 -152.105 116.344C-123.462 124.744 -102.062 137.244 -81.32 153.544C-51.36 177.044 -20.4124 209.144 13.4984 243.244C17.0102 246.844 20.522 250.344 24.1435 253.744C62.9928 290.944 95.6963 307.544 116.657 331.344C138.167 355.544 150.568 391.044 166.92 437.744C171.749 451.544 176.907 466.244 182.394 481.444C192.38 509.344 203.465 538.844 215.317 567.144C233.205 609.744 253.069 649.344 268.762 678.844" stroke="#626379" stroke-miterlimit="10"/>
<path d="M-838.99 -50.2558C-793.117 -78.6558 -742.964 -100.856 -690.287 -108.456C-658.901 -113.056 -626.307 -112.056 -595.908 -104.256C-576.044 -99.1558 -557.168 -91.1558 -540.048 -79.9558C-487.262 -45.6558 -453.131 13.8442 -407.149 51.0442C-388.492 66.1442 -370.933 78.9442 -348.985 87.3442C-330.109 94.5442 -308.818 98.1442 -286.98 99.9442C-256.69 102.344 -223.657 101.944 -194.027 103.944C-177.675 105.044 -162.201 107.144 -147.715 110.644C-118.413 117.844 -95.9159 128.644 -73.9672 143.444C-42.1415 164.844 -8.88927 195.144 25.4605 229.744C28.9723 233.344 32.5938 236.844 36.1056 240.344C74.7354 278.144 104.915 298.044 122.913 323.644C141.459 350.144 150.349 386.744 164.725 434.344C169.005 448.444 173.724 463.444 178.992 478.944C188.539 507.344 199.733 537.244 212.134 565.744C231.01 608.644 252.959 647.944 271.396 676.444" stroke="#696A82" stroke-miterlimit="10"/>
<path d="M-833.173 -58.8558C-787.52 -86.7558 -737.367 -108.156 -684.91 -115.156C-653.743 -119.456 -621.478 -118.256 -591.189 -110.456C-571.435 -105.356 -552.669 -97.4558 -535.658 -86.4558C-482.982 -52.8558 -447.973 5.24425 -403.308 43.2442C-384.871 58.8442 -367.861 72.5442 -346.022 81.6442C-327.255 89.5442 -305.965 93.6442 -283.797 95.6442C-253.288 98.4442 -219.926 98.0442 -189.966 99.4442C-173.395 100.244 -157.702 101.844 -142.996 104.744C-112.926 110.744 -89.441 119.844 -66.2851 133.144C-32.5938 152.344 3.0728 181.044 37.7518 216.044C41.3733 219.644 44.8851 223.244 48.3969 226.844C86.6974 265.244 114.353 288.444 129.388 315.844C145.081 344.544 150.349 382.244 162.859 430.944C166.591 445.444 170.98 460.744 175.919 476.444C185.028 505.344 196.331 535.644 209.391 564.344C229.254 607.544 253.288 646.544 274.469 674.044" stroke="#70708A" stroke-miterlimit="10"/>
<path d="M-827.247 -67.3559C-781.704 -94.6559 -731.661 -115.256 -679.532 -121.756C-648.585 -125.656 -616.54 -124.356 -586.58 -116.556C-567.045 -111.456 -548.389 -103.656 -531.378 -92.9559C-478.702 -59.9559 -443.035 -3.3559 -399.576 35.3441C-381.359 51.5441 -364.897 65.9441 -343.278 75.9441C-324.622 84.5441 -303.222 89.1441 -280.944 91.4441C-250.215 94.6441 -216.634 94.2441 -186.345 95.0441C-169.664 95.5441 -153.751 96.7441 -138.826 99.0441C-108.097 103.744 -83.5148 111.244 -59.1517 123.044C-23.7046 140.144 14.3764 167.144 49.6041 202.544C53.2257 206.244 56.7375 209.844 60.2493 213.444C98.3303 252.544 123.462 278.944 135.424 308.144C148.154 339.144 149.91 377.944 160.555 427.644C163.737 442.444 167.688 458.044 172.407 474.044C181.077 503.544 192.49 534.244 206.098 562.944C226.84 606.444 253.069 645.144 276.993 671.544" stroke="#777792" stroke-miterlimit="10"/>
<path d="M-821.431 -75.8557C-775.997 -102.656 -726.063 -122.356 -674.155 -128.356C-643.317 -131.956 -611.601 -130.356 -581.86 -122.656C-562.436 -117.556 -543.889 -109.856 -526.879 -99.3557C-474.312 -66.9557 -437.877 -11.7557 -395.626 27.5443C-377.737 44.2443 -361.715 59.5443 -340.205 70.2443C-321.658 79.4443 -300.149 84.5443 -277.761 87.2443C-246.813 90.8443 -212.902 90.3443 -182.394 90.6443C-165.493 90.8443 -149.361 91.5443 -134.216 93.2443C-102.83 96.7443 -77.1496 102.544 -51.5793 112.744C-14.2665 127.644 26.1191 153.044 61.7858 188.844C65.4073 192.544 69.0289 196.244 72.4309 199.944C110.292 239.644 132.79 269.344 141.899 300.444C151.666 333.644 149.91 373.544 158.58 424.244C161.213 439.344 164.725 455.344 169.225 471.544C177.456 501.544 188.979 532.644 203.245 561.544C224.975 605.344 253.288 643.744 279.956 669.144" stroke="#7E7E9B" stroke-miterlimit="10"/>
<path d="M-815.614 -84.4557C-770.4 -110.656 -720.467 -129.656 -668.777 -135.056C-638.159 -138.356 -606.772 -136.556 -577.141 -128.756C-557.827 -123.656 -539.39 -116.056 -522.489 -105.756C-469.922 -73.9557 -432.719 -20.1557 -391.785 19.8443C-374.116 37.0443 -358.532 53.2443 -337.242 64.6443C-318.805 74.5443 -297.295 80.1443 -274.688 83.0443C-243.521 87.0443 -209.391 86.5443 -178.553 86.2443C-161.543 86.0443 -145.191 86.3443 -129.717 87.4443C-97.6717 89.7443 -71.004 93.8443 -44.1169 102.544C-4.93841 115.244 37.8616 139.044 73.8575 175.244C77.5888 178.944 81.1006 182.744 84.6124 186.444C122.145 226.844 142.118 259.744 148.264 292.644C154.958 328.144 149.8 369.144 156.604 420.844C158.689 436.344 161.762 452.544 166.042 469.144C173.834 499.744 185.467 531.144 200.282 560.244C222.999 604.344 253.398 642.444 282.919 666.844" stroke="#8584A3" stroke-miterlimit="10"/>
<path d="M-809.798 -92.9557C-764.693 -118.656 -714.87 -136.756 -663.4 -141.656C-633.001 -144.656 -601.834 -142.656 -572.532 -134.856C-553.437 -129.756 -535.11 -122.256 -518.209 -112.256C-465.752 -81.0557 -427.78 -28.6557 -388.053 11.9443C-370.714 29.6443 -355.569 46.7443 -334.498 58.9443C-316.171 69.5443 -294.552 75.6443 -271.835 78.8443C-240.448 83.2443 -205.989 82.7443 -174.822 81.9443C-157.592 81.4443 -141.13 81.2443 -125.327 81.7443C-92.6236 82.7443 -64.8584 85.2443 -36.764 92.4443C4.28008 103.044 49.3846 125.144 85.9292 161.744C89.6605 165.444 93.2821 169.244 96.6841 173.044C133.997 214.044 151.227 250.144 154.629 284.944C158.25 322.644 149.58 364.744 154.519 417.544C156.055 433.344 158.689 449.944 162.75 466.744C170.103 497.844 181.735 529.744 197.209 558.944C220.804 603.344 253.398 641.144 285.663 664.544" stroke="#8C8BAC" stroke-miterlimit="10"/>
<path d="M-803.981 -101.456C-758.987 -126.556 -709.273 -143.956 -658.132 -148.256C-627.953 -150.856 -597.115 -148.756 -567.923 -140.956C-548.937 -135.956 -530.72 -128.556 -513.929 -118.656C-461.472 -88.1558 -422.842 -37.0558 -384.322 4.24425C-367.202 22.5442 -352.606 40.4442 -331.645 53.3442C-313.428 64.6442 -291.698 71.1442 -268.762 74.7442C-237.266 79.5442 -202.477 79.0442 -170.98 77.6442C-153.641 76.8442 -136.85 76.5442 -120.937 76.0442C-87.5753 75.1442 -58.7127 76.6442 -29.4112 82.3442C13.3888 90.7442 61.0176 111.244 97.8914 148.244C101.623 152.044 105.244 155.844 108.646 159.744C145.74 201.444 160.335 240.744 160.774 277.344C161.323 317.244 149.251 360.544 152.324 414.244C153.202 430.344 155.507 447.244 159.348 464.344C166.262 495.944 178.004 528.244 194.136 557.644C218.719 602.344 253.398 639.844 288.406 662.244" stroke="#9391B4" stroke-miterlimit="10"/>
<path d="M-798.165 -110.056C-753.39 -134.656 -703.676 -151.156 -652.755 -154.956C-622.795 -157.256 -592.176 -154.856 -563.314 -147.156C-544.438 -142.156 -526.33 -134.856 -509.649 -125.256C-457.192 -95.3557 -418.013 -45.6557 -380.591 -3.75569C-363.8 15.0443 -349.643 33.8443 -328.792 47.5443C-310.684 59.4443 -288.955 66.5443 -265.799 70.3443C-234.083 75.5443 -198.965 74.9443 -167.249 73.0443C-149.69 71.9443 -132.79 70.8443 -116.548 70.1443C-82.5272 68.6443 -52.5671 67.7443 -22.0584 72.0443C22.6072 78.2443 72.5406 97.1443 109.853 134.544C113.694 138.344 117.206 142.244 120.608 146.144C157.482 188.444 169.334 230.944 166.92 269.544C164.396 311.644 148.922 356.044 150.129 410.844C150.458 427.344 152.434 444.544 155.946 461.844C162.421 494.044 174.273 526.644 190.954 556.244C216.524 601.144 253.178 638.444 291.04 659.844" stroke="#9A98BC" stroke-miterlimit="10"/>
<path d="M-792.239 -118.556C-747.573 -142.556 -697.969 -158.356 -647.268 -161.556C-617.527 -163.556 -587.128 -160.956 -558.485 -153.256C-539.829 -148.256 -521.831 -141.056 -505.15 -131.656C-452.802 -102.356 -412.855 -54.0558 -376.64 -11.5558C-360.178 7.84424 -346.46 27.4442 -325.829 41.8442C-307.831 54.4442 -285.992 62.0443 -262.726 66.1443C-230.791 71.7443 -195.453 71.1443 -163.408 68.6443C-145.739 67.2443 -128.51 65.6442 -112.048 64.3442C-77.3691 61.5442 -46.3118 59.0442 -14.5959 61.8442C31.9354 65.9442 84.1733 83.0442 122.035 120.944C125.876 124.744 129.497 128.744 132.9 132.744C169.444 175.644 178.663 221.344 173.505 261.844C167.798 306.144 148.922 351.744 148.264 407.544C148.044 424.344 149.58 441.844 152.873 459.444C158.909 492.144 170.871 525.244 188.21 554.944C214.659 600.144 253.508 637.144 294.113 657.544" stroke="#A19EC5" stroke-miterlimit="10"/>
<path d="M-786.422 -127.156C-741.867 -150.656 -692.372 -165.556 -642 -168.256C-612.369 -169.856 -582.409 -167.156 -553.876 -159.456C-535.329 -154.456 -517.441 -147.356 -500.76 -138.156C-448.412 -109.456 -407.917 -62.5559 -372.799 -19.3559C-356.667 0.544119 -343.388 21.0441 -322.866 36.2441C-304.977 49.5441 -283.029 57.6441 -259.653 61.9441C-227.498 67.8441 -191.832 67.3441 -159.567 64.2441C-141.679 62.5441 -124.339 60.4441 -107.549 58.5441C-72.2112 54.5441 -40.1661 50.3441 -7.13324 51.6441C41.1539 53.5441 95.916 69.0441 134.107 107.344C137.948 111.244 141.569 115.244 144.971 119.244C181.297 162.844 187.771 211.644 179.76 254.044C170.981 300.444 148.703 347.244 146.179 404.044C145.41 421.244 146.508 438.944 149.581 456.844C155.178 490.044 167.249 523.544 185.138 553.444C212.573 598.944 253.508 635.644 296.857 655.044" stroke="#A8A5CD" stroke-miterlimit="10"/>
<path d="M-780.606 -135.656C-736.27 -158.656 -686.775 -172.656 -636.622 -174.856C-607.211 -176.156 -577.471 -173.256 -549.267 -165.556C-530.83 -160.556 -513.161 -153.556 -496.48 -144.656C-444.242 -116.656 -402.978 -71.0559 -369.068 -27.2559C-353.265 -6.75592 -340.425 14.5441 -320.012 30.4441C-302.234 44.4441 -280.285 52.9441 -256.58 57.6441C-224.206 63.9441 -188.32 63.3441 -155.616 59.7441C-137.509 57.7441 -120.059 55.1441 -103.049 52.6441C-67.0533 47.3441 -33.9108 41.4441 0.329232 41.3441C50.4821 40.9441 107.549 54.9441 146.178 93.6441C150.129 97.5441 153.641 101.544 157.043 105.744C193.149 149.944 196.88 201.944 186.125 246.244C174.273 294.844 148.593 342.844 144.093 400.644C142.776 418.144 143.435 436.244 146.288 454.344C151.446 488.144 163.628 521.944 182.174 552.044C210.598 597.844 253.617 634.244 299.71 652.644" stroke="#AFABD5" stroke-miterlimit="10"/>
<path d="M-774.79 -144.156C-730.563 -166.556 -681.178 -179.856 -631.245 -181.456C-602.053 -182.456 -572.642 -179.256 -544.548 -171.656C-526.33 -166.656 -508.661 -159.756 -492.09 -151.056C-439.852 -123.656 -398.04 -79.4558 -365.227 -35.0558C-349.643 -14.0558 -337.352 8.14419 -317.159 24.8442C-299.49 39.5442 -277.432 48.5442 -253.617 53.5442C-221.023 60.2442 -184.808 59.6442 -151.885 55.4442C-133.668 53.1442 -115.889 50.0442 -98.6593 46.9442C-62.005 40.3442 -27.765 32.8442 7.68216 31.2442C59.7006 28.6442 119.182 41.0442 158.25 80.1442C162.201 84.0442 165.823 88.1442 169.115 92.3442C205.001 137.244 206.099 192.344 192.381 238.644C177.346 289.344 148.264 338.544 142.008 397.444C140.143 415.244 140.472 433.644 142.996 452.044C147.715 486.344 160.006 520.644 179.102 550.744C208.403 596.844 253.618 632.944 302.453 650.344" stroke="#B6B2DE" stroke-miterlimit="10"/>
<path d="M-768.973 -152.756C-724.966 -174.656 -675.581 -187.056 -625.977 -188.156C-597.005 -188.856 -567.813 -185.456 -540.048 -177.856C-521.94 -172.856 -504.381 -166.056 -487.92 -157.556C-435.792 -130.756 -393.321 -87.9558 -361.605 -42.8558C-346.46 -21.2558 -334.498 1.74421 -314.415 19.1442C-296.856 34.4442 -274.798 44.0442 -250.764 49.2442C-218.06 56.3442 -181.516 55.7442 -148.264 50.9442C-129.827 48.3442 -111.938 44.7442 -94.3795 41.1442C-57.0667 33.2442 -21.8389 24.1442 14.9252 21.0442C68.6996 16.3442 130.595 27.0442 170.103 66.5442C174.053 70.5442 177.675 74.6442 181.077 78.9442C216.634 124.444 215.097 182.744 198.526 230.944C180.418 283.844 147.825 334.144 139.813 394.044C137.289 412.244 137.289 430.944 139.594 449.644C143.874 484.444 156.275 519.144 176.029 549.444C206.318 595.844 253.617 631.644 305.197 647.944" stroke="#BDB8E6" stroke-miterlimit="10"/>
<path d="M-763.157 -161.256C-719.259 -182.556 -669.985 -194.256 -620.6 -194.756C-591.847 -195.056 -562.875 -191.556 -535.329 -183.956C-517.331 -178.956 -499.992 -172.356 -483.53 -164.056C-431.402 -137.856 -388.383 -96.3559 -357.764 -50.7559C-342.949 -28.6559 -331.426 -4.75595 -311.562 13.3441C-294.113 29.3441 -271.945 39.3441 -247.801 44.9441C-214.878 52.4441 -178.004 51.7441 -144.532 46.4441C-125.986 43.5441 -107.878 39.5441 -89.9897 35.2441C-52.0184 26.1441 -15.6934 15.3441 22.2779 10.6441C77.9179 3.74407 142.118 12.8441 182.065 52.7441C186.015 56.7441 189.747 60.9441 193.039 65.2441C228.376 111.444 224.096 172.744 204.782 222.944C183.601 277.944 147.605 329.544 137.619 390.444C134.546 408.944 134.107 427.944 136.192 446.944C140.033 482.344 152.544 517.344 172.846 547.844C204.123 594.544 253.508 630.044 307.831 645.344" stroke="#C4BFEE" stroke-miterlimit="10"/>
<path d="M-757.231 -169.856C-713.443 -190.656 -664.278 -201.456 -615.113 -201.456C-586.579 -201.456 -557.936 -197.756 -530.5 -190.156C-512.612 -185.256 -495.383 -178.656 -479.031 -170.556C-427.012 -144.956 -383.444 -104.856 -353.813 -58.5558C-339.327 -35.8558 -328.243 -11.2558 -308.489 7.7442C-291.15 24.4442 -268.872 34.9442 -244.509 40.8442C-211.366 48.7442 -174.273 48.0442 -140.362 42.2442C-121.596 39.0442 -103.378 34.5442 -85.2708 29.6442C-46.7508 19.1442 -9.21846 6.8442 29.96 0.644196C87.4656 -8.3558 154.08 -0.955822 194.466 39.3442C198.526 43.3442 202.148 47.6442 205.44 51.9442C240.558 98.7442 233.534 163.244 211.366 215.344C187.003 272.344 147.605 325.244 135.863 387.244C132.241 406.044 131.473 425.444 133.229 444.644C136.631 480.544 149.251 515.944 170.212 546.644C202.367 593.644 253.947 628.844 311.013 643.144" stroke="#CBC5F7" stroke-miterlimit="10"/>
<path d="M-751.414 -178.356C-682.495 -210.256 -599.858 -216.856 -525.891 -196.256C-451.924 -175.656 -387.614 -127.956 -350.192 -66.3559C-336.035 -43.0559 -325.39 -17.6559 -305.746 2.04413C-265.14 42.9441 -196.112 48.8441 -136.741 37.7441C-77.479 26.6441 -22.1682 1.54412 37.2031 -9.65588C96.4646 -20.8559 165.493 -15.0559 206.318 25.6441C253.837 73.1441 244.838 148.444 217.512 207.544C190.076 266.744 147.276 320.744 133.558 383.744C121.596 438.744 133.777 497.844 166.92 545.144C200.063 592.444 253.727 627.344 313.537 640.644" stroke="#D2CCFF" stroke-miterlimit="10"/>
<path d="M-733.087 -182.156C-664.607 -213.156 -582.958 -218.956 -510.088 -197.956C-437.218 -176.956 -373.677 -129.656 -337.352 -68.3559C-323.195 -44.4559 -313.318 -17.9559 -294.332 2.44411C-255.812 43.8441 -189.088 50.8441 -131.582 41.7441C-74.1866 32.6441 -19.9733 9.94412 38.7395 0.144119C98.2206 -9.85588 167.578 -5.15589 209.501 34.4441C258.007 80.5441 251.752 155.344 225.413 214.944C199.075 274.544 155.178 328.844 139.923 390.244C126.754 443.344 137.838 500.144 168.566 545.944C199.294 591.744 249.886 626.244 307.502 640.044" stroke="#CDC9FE" stroke-miterlimit="10"/>
<path d="M-714.65 -185.856C-646.719 -215.856 -565.948 -220.956 -494.066 -199.656C-422.183 -178.356 -359.52 -131.256 -324.402 -70.2559C-310.245 -45.6559 -301.246 -18.2559 -282.919 2.84409C-246.594 44.6441 -182.064 52.8441 -126.534 45.7441C-70.8942 38.7441 -17.7783 18.3441 40.2761 9.84409C99.9766 1.14409 169.773 4.54411 212.793 43.1441C262.397 87.7441 258.666 162.244 233.535 222.144C208.403 282.044 163.408 336.744 146.508 396.444C132.022 447.544 142.118 502.244 170.432 546.544C198.856 590.844 246.265 624.944 301.685 639.244" stroke="#C7C6FE" stroke-miterlimit="10"/>
<path d="M-696.323 -189.656C-628.831 -218.656 -549.047 -222.956 -478.153 -201.456C-407.258 -179.956 -345.582 -132.956 -311.562 -72.2557C-297.405 -46.9557 -289.284 -18.6557 -271.506 3.24428C-237.266 45.4443 -175.151 54.7443 -121.376 49.7443C-67.602 44.7443 -15.5835 26.6443 41.9221 19.5443C101.732 12.1443 172.078 14.2443 216.085 51.8443C266.787 95.0443 265.58 169.144 241.655 229.344C217.731 289.544 171.529 344.544 152.983 402.744C137.399 451.744 146.178 504.344 172.188 547.244C198.197 590.044 242.533 623.644 295.759 638.544" stroke="#C2C3FD" stroke-miterlimit="10"/>
<path d="M-677.886 -193.456C-610.943 -221.556 -531.927 -225.056 -462.13 -203.156C-392.333 -181.256 -331.535 -134.456 -298.612 -74.1559C-284.455 -48.1559 -277.212 -19.0558 -259.983 3.74416C-227.828 46.2442 -168.017 56.8442 -116.109 53.9442C-64.2 51.0442 -13.279 35.2441 43.678 29.4441C103.817 23.2441 174.383 24.2442 219.597 60.7442C271.396 102.544 272.713 176.144 249.996 236.744C227.169 297.344 179.98 352.444 159.787 409.144C142.996 456.144 150.678 506.644 174.273 548.044C197.868 589.444 239.131 622.544 290.162 638.044" stroke="#BDC0FD" stroke-miterlimit="10"/>
<path d="M-659.559 -197.156C-593.054 -224.256 -515.027 -227.056 -446.327 -204.856C-377.628 -182.656 -317.708 -136.056 -285.882 -76.1559C-271.725 -49.4559 -265.25 -19.4558 -248.679 4.04416C-218.609 46.8442 -161.104 58.7441 -111.061 57.8441C-61.0175 56.9441 -11.0841 43.6442 45.2143 39.0442C105.573 34.1442 176.468 33.9441 222.78 69.3441C275.566 109.744 279.627 182.944 257.897 243.844C236.278 304.744 187.991 360.144 166.042 415.344C148.154 460.344 154.629 508.644 175.809 548.544C196.99 588.444 235.18 621.144 283.907 637.144" stroke="#B8BDFC" stroke-miterlimit="10"/>
<path d="M-641.122 -200.956C-575.166 -227.056 -498.016 -229.156 -430.305 -206.556C-362.593 -183.956 -303.77 -137.556 -272.932 -78.0557C-258.775 -50.6557 -253.178 -19.8557 -237.266 4.54427C-209.171 47.5443 -154.19 60.7443 -105.903 61.9443C-57.7251 63.1443 -8.88919 52.1443 46.8606 48.8443C107.439 45.3443 178.663 43.7443 226.182 78.1443C280.066 117.144 286.65 189.944 266.128 251.244C245.606 312.544 196.441 368.044 172.736 421.744C153.861 464.644 158.909 510.944 177.785 549.344C196.661 587.744 231.669 619.944 278.2 636.544" stroke="#B2BAFC" stroke-miterlimit="10"/>
<path d="M-622.795 -204.756C-557.278 -229.856 -481.116 -231.256 -414.392 -208.356C-347.668 -185.456 -289.943 -139.156 -260.092 -80.0559C-245.935 -51.9559 -241.107 -20.3559 -225.852 4.84407C-199.733 47.9441 -147.166 62.6441 -100.854 65.8441C-54.4328 69.0441 -6.69434 60.5441 48.3969 58.5441C109.195 56.3441 180.857 53.5441 229.364 86.8441C284.236 124.444 293.454 196.744 274.139 258.444C254.825 320.144 204.672 375.644 179.211 428.044C159.348 468.844 163.079 513.044 179.541 550.044C196.002 586.944 227.828 618.744 272.274 635.844" stroke="#ADB6FB" stroke-miterlimit="10"/>
<path d="M-604.358 -208.456C-539.39 -232.656 -464.106 -233.256 -398.479 -210.056C-332.852 -186.856 -276.115 -140.656 -247.252 -81.9557C-233.095 -53.1557 -229.145 -20.8557 -214.439 5.34428C-190.186 48.5443 -140.143 64.7443 -95.6964 69.9443C-51.1405 75.2443 -4.38962 66.3443 50.0432 68.3443C111.061 70.5443 183.052 63.4443 232.766 95.6443C288.626 131.844 300.478 203.744 282.261 265.744C264.043 327.744 213.122 383.444 185.686 434.344C164.835 473.144 167.249 515.244 181.297 550.644C195.344 586.144 224.097 617.344 266.348 635.044" stroke="#A8B3FB" stroke-miterlimit="10"/>
<path d="M-586.031 -212.256C-521.502 -235.456 -447.095 -235.356 -382.566 -211.756C-317.927 -188.256 -262.287 -142.156 -234.412 -83.9559C-220.255 -54.4559 -217.073 -21.3559 -203.026 5.64409C-180.638 48.9441 -133.229 66.5441 -90.5384 73.9441C-47.8482 81.2441 -1.97531 74.6441 51.6893 78.0441C112.926 81.8441 185.247 73.2441 236.059 104.344C293.015 139.144 307.392 210.644 290.382 272.944C273.371 335.244 221.572 391.044 192.271 440.544C170.542 477.244 171.419 517.244 183.162 551.244C194.905 585.244 220.475 616.044 260.531 634.244" stroke="#A3B0FA" stroke-miterlimit="10"/>
<path d="M-567.594 -216.056C-503.503 -238.256 -430.085 -237.456 -366.544 -213.556C-303.002 -189.656 -248.459 -143.756 -221.462 -85.9558C-207.415 -55.7558 -204.891 -21.9558 -191.612 6.04417C-171.09 49.3442 -126.205 68.5442 -85.3804 77.9442C-44.5558 87.3442 0.219663 86.1442 53.3356 87.7442C115.011 89.6442 187.442 82.9442 239.461 113.044C297.405 146.444 314.525 217.544 298.612 280.144C282.7 342.744 230.242 398.644 198.856 446.844C176.358 481.444 175.7 519.444 185.028 551.944C194.356 584.444 216.854 614.844 254.715 633.544" stroke="#9DADFA" stroke-miterlimit="10"/>
<path d="M-549.266 -219.756C-485.725 -240.956 -413.184 -239.356 -350.63 -215.256C-288.077 -191.156 -234.631 -145.256 -208.622 -87.8558C-194.575 -56.9558 -192.709 -22.4558 -180.199 6.54419C-161.433 49.9442 -119.291 70.6442 -80.2222 82.0442C-41.2632 93.4442 2.4147 94.7442 54.8721 97.5442C116.768 100.844 189.528 92.8442 242.643 121.744C301.576 153.844 321.33 224.344 306.624 287.344C291.918 350.344 238.693 406.244 205.331 453.044C182.065 485.644 179.87 521.444 186.784 552.444C193.698 583.444 213.122 613.344 248.789 632.644" stroke="#98AAF9" stroke-miterlimit="10"/>
<path d="M-530.83 -223.556C-467.727 -243.856 -396.174 -241.456 -334.718 -216.956C-273.261 -192.456 -220.914 -146.656 -195.782 -89.7559C-181.845 -58.1559 -180.638 -22.9559 -168.785 6.94408C-151.665 50.2441 -112.268 72.5441 -75.1742 86.0441C-38.0809 99.5441 4.60938 103.344 56.4084 107.344C118.633 112.144 191.613 102.744 245.826 130.544C305.746 161.244 328.134 231.344 314.525 294.744C300.917 358.144 247.252 414.044 211.586 459.544C187.771 490.044 183.711 523.844 188.32 553.344C192.929 582.844 209.171 612.344 242.643 632.144" stroke="#93A7F9" stroke-miterlimit="10"/>
<path d="M-512.502 -227.256C-449.949 -246.556 -379.274 -243.456 -318.805 -218.656C-258.336 -193.856 -207.196 -148.156 -183.052 -91.6559C-169.115 -59.2559 -168.566 -23.4559 -157.482 7.44412C-142.008 50.7441 -105.354 74.6441 -70.126 90.1441C-34.7886 105.644 6.80418 112.044 57.9447 117.144C120.389 123.344 193.588 112.644 249.118 139.344C310.026 168.644 335.047 238.344 322.646 302.044C310.245 365.744 256.032 421.744 218.17 465.844C193.698 494.344 187.991 525.944 190.186 554.044C192.381 582.144 205.55 611.144 236.827 631.444" stroke="#8EA4F9" stroke-miterlimit="10"/>
<path d="M-494.066 -231.056C-431.951 -249.356 -362.154 -245.556 -302.782 -220.456C-243.411 -195.356 -193.368 -149.656 -170.102 -93.7558C-156.275 -60.6558 -156.165 -24.1558 -146.069 7.64421C-132.241 50.9442 -98.4399 76.4442 -64.9681 94.0442C-31.4963 111.644 9.1088 120.544 59.5909 126.744C122.364 134.444 195.783 122.344 252.41 147.944C314.306 175.944 342.071 245.044 330.767 309.144C319.464 373.244 264.921 429.344 224.755 472.044C199.843 498.544 192.271 528.044 192.051 554.544C191.832 581.144 201.928 609.644 231.01 630.644" stroke="#88A1F8" stroke-miterlimit="10"/>
<path d="M-475.738 -234.856C-414.172 -252.256 -345.253 -247.656 -286.87 -222.156C-228.486 -196.656 -179.76 -151.156 -157.263 -95.6559C-143.545 -61.8559 -143.984 -24.7559 -134.655 8.14409C-122.364 51.3441 -91.4164 78.4441 -59.8102 98.1441C-28.2041 117.844 11.4134 129.244 61.237 136.544C124.34 145.744 197.978 132.344 255.812 156.744C318.695 183.344 349.094 252.044 338.888 316.444C328.792 380.844 273.92 437.144 231.23 478.344C205.769 502.944 196.441 530.144 193.807 555.244C191.173 580.344 198.197 608.444 225.084 629.944" stroke="#839EF8" stroke-miterlimit="10"/>
<path d="M-457.302 -238.556C-396.174 -254.956 -328.243 -249.656 -270.957 -223.856C-213.671 -198.056 -166.042 -152.556 -144.423 -97.5558C-130.814 -62.9558 -131.692 -25.2558 -123.242 8.64417C-112.487 51.8442 -84.3928 80.5442 -54.6523 102.244C-24.9118 123.944 13.7179 138.044 62.883 146.344C126.205 157.144 200.172 142.244 259.105 165.544C322.975 190.844 356.008 259.044 347.009 323.744C338.01 388.544 282.919 445.044 237.814 484.744C212.025 507.444 200.611 532.344 195.673 556.044C190.734 579.644 194.575 607.244 219.158 629.344" stroke="#7E9BF7" stroke-miterlimit="10"/>
<path d="M-438.974 -242.356C-378.396 -257.756 -311.343 -251.756 -255.044 -225.656C-198.746 -199.556 -152.434 -154.156 -131.583 -99.5558C-118.084 -64.2558 -119.401 -25.8558 -111.829 8.94424C-102.61 52.1442 -77.479 82.4443 -49.6041 106.144C-21.7292 129.944 15.8031 146.544 64.4195 155.944C127.961 168.244 202.258 151.944 262.397 174.144C327.255 198.044 362.922 265.744 355.13 330.944C347.339 396.144 292.028 452.944 244.289 490.944C218.061 511.744 204.782 534.444 197.429 556.544C190.076 578.644 190.844 605.844 213.232 628.444" stroke="#7898F7" stroke-miterlimit="10"/>
<path d="M-420.647 -246.156C-360.508 -260.556 -294.442 -253.856 -239.131 -227.356C-183.82 -200.856 -138.716 -155.556 -118.743 -101.556C-105.354 -65.4558 -107 -26.5558 -100.525 9.34424C-92.7333 52.4442 -70.5651 84.3443 -44.5558 110.144C-18.5466 135.944 17.998 155.244 65.956 165.744C129.827 179.644 204.343 161.844 265.58 182.944C331.426 205.544 369.836 272.744 363.142 338.244C356.447 403.744 301.137 461.044 250.764 497.244C224.316 516.244 208.952 536.544 199.185 557.244C189.527 577.944 187.113 604.644 207.306 627.744" stroke="#7395F6" stroke-miterlimit="10"/>
<path d="M-402.21 -249.856C-342.51 -263.356 -277.432 -255.756 -223.109 -229.056C-168.895 -202.356 -124.998 -156.956 -105.793 -103.456C-92.5137 -66.6558 -94.4891 -27.0558 -89.002 9.74423C-82.6368 52.8442 -63.5415 86.3442 -39.2881 114.244C-15.0348 142.144 20.4124 164.044 67.7119 175.544C131.802 191.044 206.538 171.844 269.091 191.744C335.925 213.044 376.969 279.744 371.372 345.544C365.885 411.344 310.574 469.244 257.459 503.644C230.681 520.944 213.232 538.844 201.16 558.044C189.088 577.244 183.601 603.444 201.599 627.144" stroke="#6E92F6" stroke-miterlimit="10"/>
<path d="M-383.883 -253.656C-324.621 -266.156 -260.421 -257.856 -207.196 -230.856C-153.97 -203.756 -111.39 -158.456 -92.9528 -105.456C-79.8933 -67.8558 -81.9784 -27.6558 -77.5886 10.1442C-72.5404 53.2442 -56.5178 88.3442 -34.1301 118.244C-11.7425 148.144 22.6073 172.744 69.2483 185.244C133.558 202.444 208.623 181.644 272.274 200.444C340.096 220.444 383.773 286.644 379.384 352.744C374.994 418.844 319.793 477.544 263.824 509.844C236.717 525.444 217.292 540.844 202.806 558.544C188.32 576.244 179.76 602.044 195.563 626.244" stroke="#698EF5" stroke-miterlimit="10"/>
<path d="M-365.446 -257.456C-306.733 -268.956 -243.411 -259.956 -191.283 -232.556C-139.155 -205.156 -97.7815 -159.956 -80.1128 -107.356C-67.163 -69.0558 -69.5774 -28.1558 -66.1753 10.5442C-62.4441 53.6442 -49.4943 90.2442 -28.9722 122.244C-8.45019 154.244 24.8021 181.544 70.8944 194.944C135.424 213.744 210.817 191.544 275.676 209.144C344.485 227.844 390.797 293.444 387.614 359.944C384.432 426.444 329.341 486.044 270.518 516.144C243.082 530.144 221.682 543.044 204.782 559.244C187.991 575.444 176.248 600.844 189.856 625.544" stroke="#638BF5" stroke-miterlimit="10"/>
<path d="M-347.119 -261.156C-288.955 -271.656 -226.511 -261.956 -175.37 -234.256C-124.23 -206.556 -84.283 -161.356 -67.2728 -109.356C-54.5425 -70.2559 -56.9569 -28.7559 -54.8717 10.9441C-52.4574 54.0441 -42.5805 92.2441 -23.924 126.244C-5.26763 160.244 26.997 190.244 72.4308 204.644C137.07 225.144 212.903 201.344 278.859 217.844C348.655 235.244 397.601 300.344 395.516 367.144C393.431 434.044 338.449 494.644 276.773 522.344C249.008 534.844 225.523 545.044 206.318 559.844C187.113 574.644 172.188 599.444 183.711 624.744" stroke="#5E88F4" stroke-miterlimit="10"/>
<path d="M-328.682 -264.956C-270.957 -274.556 -209.5 -264.056 -159.457 -236.056C-109.414 -208.056 -70.6748 -162.856 -54.4327 -111.356C-41.922 -71.5558 -44.4461 -29.3559 -43.4584 11.3441C-42.3609 54.5441 -35.6666 94.2442 -18.8759 130.244C-2.08508 166.344 29.0821 199.044 73.9673 214.444C138.826 236.644 214.878 211.344 282.041 226.644C352.826 242.744 404.515 307.344 403.527 374.544C402.54 441.744 347.668 503.644 283.248 528.844C255.154 539.844 229.693 547.444 208.074 560.644C186.454 573.944 168.457 598.344 177.785 624.144" stroke="#5985F4" stroke-miterlimit="10"/>
<path d="M-310.355 -268.756C-253.178 -277.356 -192.6 -266.156 -143.545 -237.756C-94.4892 -209.456 -57.0666 -164.356 -41.5927 -113.256C-29.3015 -72.6557 -31.8256 -29.8557 -32.0451 11.7443C-32.2646 54.9443 -28.643 96.1442 -13.7179 134.344C1.20722 172.444 31.277 207.844 75.6134 224.244C140.582 248.244 217.073 221.344 285.443 235.444C357.215 250.244 411.538 314.244 411.758 381.844C411.977 449.444 357.215 512.544 289.943 535.044C261.519 544.544 234.083 549.444 210.049 561.244C186.015 573.044 164.945 596.944 172.078 623.444" stroke="#5482F3" stroke-miterlimit="10"/>
<path d="M-291.918 -272.456C-235.18 -280.056 -175.48 -268.156 -127.522 -239.456C-79.5641 -210.756 -43.4584 -165.756 -28.643 -115.156C-16.5712 -73.8558 -19.0953 -30.2558 -20.522 12.2442C-21.9487 55.5442 -21.6194 98.2442 -8.45021 138.444C4.71902 178.644 33.5816 216.744 77.3693 234.044C142.447 259.744 219.378 231.344 288.845 244.244C361.605 257.844 418.562 321.244 419.989 389.144C421.415 457.044 366.544 521.844 296.527 541.544C267.665 549.644 238.253 551.844 211.915 562.144C185.577 572.444 161.323 595.944 166.262 622.944" stroke="#4E7FF3" stroke-miterlimit="10"/>
<path d="M-273.591 -276.256C-217.402 -282.956 -158.579 -270.156 -111.609 -241.256C-64.6389 -212.256 -29.9599 -167.256 -15.803 -117.256C-3.95066 -75.1558 -6.47476 -30.9558 -9.21835 12.4442C-11.9619 55.8442 -14.7055 100.044 -3.40195 142.244C7.90164 184.444 35.557 225.344 78.9057 243.544C144.093 271.044 221.463 240.944 292.138 252.744C365.885 264.944 425.476 327.944 428 396.144C430.524 464.344 375.652 530.844 303.002 547.544C273.591 554.344 242.424 553.644 213.671 562.444C184.918 571.244 157.592 594.344 160.336 621.844" stroke="#497CF2" stroke-miterlimit="10"/>
</g>
</svg>
