<svg width="24" height="25" viewBox="0 0 24 25" fill="none" xmlns="http://www.w3.org/2000/svg">
<path d="M8.46447 12.4999L5.63604 15.3283C4.65973 16.3046 4.65973 17.8875 5.63604 18.8639V18.8639C6.61235 19.8402 8.19526 19.8402 9.17157 18.8639L12 16.0354M8.46447 12.4999L12 16.0354M8.46447 12.4999L12 8.96436M12 16.0354L15.5355 12.4999M12 8.96436L14.8284 6.13593C15.8047 5.15962 17.3876 5.15962 18.364 6.13593V6.13593C19.3403 7.11225 19.3403 8.69516 18.364 9.67147L15.5355 12.4999M12 8.96436L15.5355 12.4999" stroke="#54565E"/>
<g opacity="0.5">
<path d="M15.9563 12.8886L18.3776 15.3285C19.3475 16.3059 19.3444 17.8836 18.3708 18.8572C17.3918 19.8362 15.8037 19.8331 14.8285 18.8504L12.4149 16.4182C12.1855 16.187 12.1862 15.8138 12.4165 15.5835L15.1131 12.8869C15.3461 12.6539 15.7242 12.6546 15.9563 12.8886Z" stroke="#54565E"/>
<path d="M9.17154 6.14974L11.5851 8.58194C11.8145 8.81313 11.8138 9.1863 11.5835 9.4166L8.88687 12.1132C8.65385 12.3462 8.27582 12.3455 8.0437 12.1116L5.62244 9.6716C4.65255 8.69421 4.65559 7.11656 5.62923 6.14292C6.6082 5.16395 8.19635 5.16701 9.17154 6.14974Z" stroke="#54565E"/>
</g>
<path opacity="0.5" d="M12 10.99H12.01V11H12V10.99Z" stroke="#54565E" stroke-linejoin="round"/>
<path opacity="0.5" d="M12 12.5H12.01V12.51H12V12.5Z" stroke="#54565E" stroke-linejoin="round"/>
<path opacity="0.5" d="M13.5 12.5H13.51V12.51H13.5V12.5Z" stroke="#54565E" stroke-linejoin="round"/>
<path opacity="0.5" d="M10.5 12.5H10.51V12.51H10.5V12.5Z" stroke="#54565E" stroke-linejoin="round"/>
<path opacity="0.5" d="M12 13.99H12.01V14H12V13.99Z" stroke="#54565E" stroke-linejoin="round"/>
</svg>
