<svg width="24" height="25" viewBox="0 0 24 25" fill="none" xmlns="http://www.w3.org/2000/svg">
<path opacity="0.5" d="M5.5 19C5.5 18.4477 5.94772 18 6.5 18H17.4392C17.9915 18 18.4392 18.4477 18.4392 19V19C18.4392 19.2761 18.2153 19.5 17.9392 19.5H6C5.72386 19.5 5.5 19.2761 5.5 19V19Z" stroke="#54565E"/>
<path d="M5.93921 12.5C5.93921 9.18629 8.6255 6.5 11.9392 6.5V6.5C15.2529 6.5 17.9392 9.18629 17.9392 12.5V15.25C17.9392 15.4823 17.9392 15.5985 17.92 15.6951C17.8411 16.0918 17.531 16.4019 17.1343 16.4808C17.0377 16.5 16.9215 16.5 16.6892 16.5H7.18921C6.95688 16.5 6.84072 16.5 6.74412 16.4808C6.34743 16.4019 6.03733 16.0918 5.95842 15.6951C5.93921 15.5985 5.93921 15.4823 5.93921 15.25V12.5Z" stroke="#54565E"/>
<path opacity="0.5" d="M16.5 12C16.5 10.5 15 8.5 13 8.5" stroke="#54565E" stroke-linecap="round"/>
<path d="M11.99 4H12V4.5H11.99V4Z" stroke="#54565E" stroke-linejoin="round"/>
<path d="M3.5 12.51L3.5 12.5L4 12.5L4 12.51L3.5 12.51Z" stroke="#54565E" stroke-linejoin="round"/>
<path d="M20 12.51L20 12.5L20.5 12.5L20.5 12.51L20 12.51Z" stroke="#54565E" stroke-linejoin="round"/>
<path d="M18 6.5L18.0071 6.50707L17.6535 6.86062L17.6464 6.85355L18 6.5Z" stroke="#54565E" stroke-linejoin="round"/>
<path d="M6 6.5L5.99293 6.50707L6.34648 6.86062L6.35355 6.85355L6 6.5Z" stroke="#54565E" stroke-linejoin="round"/>
</svg>
