<svg width="24" height="25" viewBox="0 0 24 25" fill="none" xmlns="http://www.w3.org/2000/svg">
<path d="M12 21.3955C7 19.5 3 15.127 3 9.83876C3 6.88764 5.241 4.5 8.004 4.5C9.642 4.5 11.091 5.34045 12 6.63933C12.909 5.34045 14.367 4.5 15.996 4.5C18.759 4.5 21 6.88764 21 9.83876C21 14.3113 17 19.5 12 21.3955Z" stroke="#54565E" stroke-linecap="round" stroke-linejoin="round"/>
<path opacity="0.5" d="M20.5 12.5H18.1036C18.0372 12.5 17.9737 12.4737 17.9268 12.4268L16.7453 11.2453C16.6246 11.1246 16.4212 11.1576 16.3449 11.3102L15.1551 13.6898C15.0788 13.8424 14.8754 13.8754 14.7547 13.7547L13.7087 12.7087C13.5994 12.5994 13.4183 12.6144 13.3285 12.7401L11.3223 15.5487C11.1972 15.724 10.9237 15.6695 10.8753 15.4596L9.64626 10.1338C9.59477 9.91066 9.29533 9.86841 9.18412 10.0686L7.18723 13.663C7.09926 13.8213 6.87736 13.8365 6.76869 13.6916L5.67295 12.2306C5.58167 12.1089 5.40375 12.0962 5.29617 12.2038L4.57322 12.9268C4.52634 12.9737 4.46275 13 4.39645 13H3.5" stroke="#54565E" stroke-linecap="round"/>
</svg>
