<svg width="20" height="20" viewBox="0 0 20 20" fill="none" xmlns="http://www.w3.org/2000/svg">
<path d="M13.4917 1.66675H6.50834C3.475 1.66675 1.66667 3.47508 1.66667 6.50841V13.4834C1.66667 16.5251 3.475 18.3334 6.50834 18.3334H13.4833C16.5167 18.3334 18.325 16.5251 18.325 13.4917V6.50841C18.3333 3.47508 16.525 1.66675 13.4917 1.66675ZM14.1667 14.3751H5.83334C5.49167 14.3751 5.20834 14.0917 5.20834 13.7501C5.20834 13.4084 5.49167 13.1251 5.83334 13.1251H14.1667C14.5083 13.1251 14.7917 13.4084 14.7917 13.7501C14.7917 14.0917 14.5083 14.3751 14.1667 14.3751ZM14.1667 10.6251H5.83334C5.49167 10.6251 5.20834 10.3417 5.20834 10.0001C5.20834 9.65842 5.49167 9.37508 5.83334 9.37508H14.1667C14.5083 9.37508 14.7917 9.65842 14.7917 10.0001C14.7917 10.3417 14.5083 10.6251 14.1667 10.6251ZM14.1667 6.87508H5.83334C5.49167 6.87508 5.20834 6.59175 5.20834 6.25008C5.20834 5.90841 5.49167 5.62508 5.83334 5.62508H14.1667C14.5083 5.62508 14.7917 5.90841 14.7917 6.25008C14.7917 6.59175 14.5083 6.87508 14.1667 6.87508Z" fill="#B9BABC"/>
</svg>
