<svg width="24" height="25" viewBox="0 0 24 25" fill="none" xmlns="http://www.w3.org/2000/svg">
<path opacity="0.5" d="M8.5 16C7.5 16 5.5 17 5.5 19.5" stroke="#54565E" stroke-linecap="round"/>
<path opacity="0.5" d="M15.5 16C16.5 16 18.5 17 18.5 19.5" stroke="#54565E" stroke-linecap="round"/>
<path opacity="0.5" d="M14 16L12.1818 18.1818M11.5 19L12.1818 18.1818M10 16L12.1818 18.1818" stroke="#54565E" stroke-linecap="round"/>
<path opacity="0.5" d="M8.25 17.75V19.25M7.5 18.5H9" stroke="#54565E" stroke-linecap="round"/>
<path d="M9.35631 13.9789C9.62081 14.0583 9.89955 13.9082 9.9789 13.6437C10.0582 13.3792 9.90816 13.1004 9.64366 13.0211L9.35631 13.9789ZM8.22264 5.58398C7.73282 5.91052 7.30892 6.52971 7.00335 7.22345C6.69101 7.93255 6.47176 8.78782 6.43787 9.65548C6.40401 10.5223 6.55452 11.4298 7.0137 12.2149C7.47918 13.0108 8.2413 13.6444 9.35631 13.9789L9.64366 13.0211C8.75867 12.7556 8.20829 12.2767 7.8769 11.7101C7.5392 11.1327 7.40847 10.4277 7.43711 9.69452C7.46571 8.96218 7.65272 8.22995 7.9185 7.62655C8.19105 7.00779 8.51715 6.58948 8.77734 6.41602L8.22264 5.58398Z" fill="#54565E"/>
<path d="M14.6437 13.9789C14.3792 14.0583 14.1005 13.9082 14.0211 13.6437C13.9418 13.3792 14.0918 13.1004 14.3563 13.0211L14.6437 13.9789ZM15.7774 5.58398C16.2672 5.91052 16.6911 6.52971 16.9967 7.22345C17.309 7.93255 17.5282 8.78782 17.5621 9.65548C17.596 10.5223 17.4455 11.4298 16.9863 12.2149C16.5208 13.0108 15.7587 13.6444 14.6437 13.9789L14.3563 13.0211C15.2413 12.7556 15.7917 12.2767 16.1231 11.7101C16.4608 11.1327 16.5915 10.4277 16.5629 9.69452C16.5343 8.96218 16.3473 8.22995 16.0815 7.62655C15.809 7.00779 15.4829 6.58948 15.2227 6.41602L15.7774 5.58398Z" fill="#54565E"/>
<path d="M9.12423 10C9.0434 10.3169 9 10.6525 9 11C9 12.933 10.3431 15 12 15C13.6569 15 15 12.933 15 11C15 10.6525 14.9566 10.3169 14.8758 10" stroke="#54565E" stroke-linecap="round"/>
<path d="M13 8C12.5604 8.43964 11.3476 9.65241 8.68189 9.93882" stroke="#54565E" stroke-linecap="round"/>
<path d="M12.5 9C13 9.5 13.5 10 15 10" stroke="#54565E" stroke-linecap="round"/>
<path opacity="0.5" d="M15.85 4.47517C15.9328 4.33168 15.8839 4.14766 15.7374 4.07026C14.587 3.46238 13.3042 3.14356 12 3.14356C10.6958 3.14356 9.413 3.46238 8.26257 4.07026C8.11608 4.14766 8.06716 4.33168 8.15 4.47517L9.52822 6.86231C9.61106 7.0058 9.79416 7.05402 9.94269 6.98061C10.5812 6.66505 11.2851 6.5 12 6.5C12.7149 6.5 13.4188 6.66505 14.0573 6.98061C14.2058 7.05402 14.3889 7.0058 14.4718 6.86231L15.85 4.47517Z" stroke="#54565E"/>
</svg>
